<mxfile host="app.diagrams.net" modified="2023-03-29T06:09:01.562Z" agent="Mozilla/5.0 (Windows NT 10.0; Win64; x64) AppleWebKit/537.36 (KHTML, like Gecko) Chrome/111.0.0.0 Safari/537.36" version="21.1.1" etag="OQmXaYu4gg14IXctrPLq" type="github">
  <diagram name="Page-1" id="NCRNPdXAu1-lZLGwYB6j">
    <mxGraphModel>
      <root>
        <mxCell id="0" />
        <mxCell id="1" parent="0" />
      </root>
    </mxGraphModel>
  </diagram>
</mxfile>
